<mxfile host="app.diagrams.net" modified="2023-09-17T04:26:40.915Z" agent="Mozilla/5.0 (Windows NT 10.0; Win64; x64) AppleWebKit/537.36 (KHTML, like Gecko) Chrome/116.0.0.0 Safari/537.36 Edg/116.0.1938.81" etag="Oo6p3q1HSipM6Nx__2MK" version="21.7.5" type="device">
  <diagram name="PÃ¡gina-1" id="n2i3NUeSPKtLPGSa2fhW">
    <mxGraphModel dx="1426" dy="751" grid="1" gridSize="10" guides="1" tooltips="1" connect="1" arrows="1" fold="1" page="1" pageScale="1" pageWidth="827" pageHeight="1169" math="0" shadow="0">
      <root>
        <mxCell id="0" />
        <mxCell id="1" parent="0" />
        <mxCell id="AAWV9IvX8UEuNwH8iyRC-1" value="Aviao" style="swimlane;fontStyle=1;align=center;verticalAlign=top;childLayout=stackLayout;horizontal=1;startSize=26;horizontalStack=0;resizeParent=1;resizeParentMax=0;resizeLast=0;collapsible=1;marginBottom=0;whiteSpace=wrap;html=1;" vertex="1" parent="1">
          <mxGeometry x="230" y="40" width="160" height="60" as="geometry" />
        </mxCell>
        <mxCell id="AAWV9IvX8UEuNwH8iyRC-3" value="" style="line;strokeWidth=1;fillColor=none;align=left;verticalAlign=middle;spacingTop=-1;spacingLeft=3;spacingRight=3;rotatable=0;labelPosition=right;points=[];portConstraint=eastwest;strokeColor=inherit;" vertex="1" parent="AAWV9IvX8UEuNwH8iyRC-1">
          <mxGeometry y="26" width="160" height="8" as="geometry" />
        </mxCell>
        <mxCell id="AAWV9IvX8UEuNwH8iyRC-4" value="+ Aviao(...)" style="text;strokeColor=none;fillColor=none;align=left;verticalAlign=top;spacingLeft=4;spacingRight=4;overflow=hidden;rotatable=0;points=[[0,0.5],[1,0.5]];portConstraint=eastwest;whiteSpace=wrap;html=1;" vertex="1" parent="AAWV9IvX8UEuNwH8iyRC-1">
          <mxGeometry y="34" width="160" height="26" as="geometry" />
        </mxCell>
        <mxCell id="AAWV9IvX8UEuNwH8iyRC-5" value="Caminhao" style="swimlane;fontStyle=1;align=center;verticalAlign=top;childLayout=stackLayout;horizontal=1;startSize=26;horizontalStack=0;resizeParent=1;resizeParentMax=0;resizeLast=0;collapsible=1;marginBottom=0;whiteSpace=wrap;html=1;" vertex="1" parent="1">
          <mxGeometry x="440" y="400" width="160" height="60" as="geometry" />
        </mxCell>
        <mxCell id="AAWV9IvX8UEuNwH8iyRC-7" value="" style="line;strokeWidth=1;fillColor=none;align=left;verticalAlign=middle;spacingTop=-1;spacingLeft=3;spacingRight=3;rotatable=0;labelPosition=right;points=[];portConstraint=eastwest;strokeColor=inherit;" vertex="1" parent="AAWV9IvX8UEuNwH8iyRC-5">
          <mxGeometry y="26" width="160" height="8" as="geometry" />
        </mxCell>
        <mxCell id="AAWV9IvX8UEuNwH8iyRC-8" value="+ Caminhao(...)" style="text;strokeColor=none;fillColor=none;align=left;verticalAlign=top;spacingLeft=4;spacingRight=4;overflow=hidden;rotatable=0;points=[[0,0.5],[1,0.5]];portConstraint=eastwest;whiteSpace=wrap;html=1;" vertex="1" parent="AAWV9IvX8UEuNwH8iyRC-5">
          <mxGeometry y="34" width="160" height="26" as="geometry" />
        </mxCell>
        <mxCell id="AAWV9IvX8UEuNwH8iyRC-9" value="Carro" style="swimlane;fontStyle=1;align=center;verticalAlign=top;childLayout=stackLayout;horizontal=1;startSize=26;horizontalStack=0;resizeParent=1;resizeParentMax=0;resizeLast=0;collapsible=1;marginBottom=0;whiteSpace=wrap;html=1;" vertex="1" parent="1">
          <mxGeometry x="440" y="178" width="160" height="60" as="geometry" />
        </mxCell>
        <mxCell id="AAWV9IvX8UEuNwH8iyRC-11" value="" style="line;strokeWidth=1;fillColor=none;align=left;verticalAlign=middle;spacingTop=-1;spacingLeft=3;spacingRight=3;rotatable=0;labelPosition=right;points=[];portConstraint=eastwest;strokeColor=inherit;" vertex="1" parent="AAWV9IvX8UEuNwH8iyRC-9">
          <mxGeometry y="26" width="160" height="8" as="geometry" />
        </mxCell>
        <mxCell id="AAWV9IvX8UEuNwH8iyRC-12" value="+ Carro(...)" style="text;strokeColor=none;fillColor=none;align=left;verticalAlign=top;spacingLeft=4;spacingRight=4;overflow=hidden;rotatable=0;points=[[0,0.5],[1,0.5]];portConstraint=eastwest;whiteSpace=wrap;html=1;" vertex="1" parent="AAWV9IvX8UEuNwH8iyRC-9">
          <mxGeometry y="34" width="160" height="26" as="geometry" />
        </mxCell>
        <mxCell id="AAWV9IvX8UEuNwH8iyRC-13" value="Motocicleta" style="swimlane;fontStyle=1;align=center;verticalAlign=top;childLayout=stackLayout;horizontal=1;startSize=26;horizontalStack=0;resizeParent=1;resizeParentMax=0;resizeLast=0;collapsible=1;marginBottom=0;whiteSpace=wrap;html=1;" vertex="1" parent="1">
          <mxGeometry x="440" y="300" width="160" height="60" as="geometry" />
        </mxCell>
        <mxCell id="AAWV9IvX8UEuNwH8iyRC-15" value="" style="line;strokeWidth=1;fillColor=none;align=left;verticalAlign=middle;spacingTop=-1;spacingLeft=3;spacingRight=3;rotatable=0;labelPosition=right;points=[];portConstraint=eastwest;strokeColor=inherit;" vertex="1" parent="AAWV9IvX8UEuNwH8iyRC-13">
          <mxGeometry y="26" width="160" height="8" as="geometry" />
        </mxCell>
        <mxCell id="AAWV9IvX8UEuNwH8iyRC-16" value="+ Motocicleta(...)" style="text;strokeColor=none;fillColor=none;align=left;verticalAlign=top;spacingLeft=4;spacingRight=4;overflow=hidden;rotatable=0;points=[[0,0.5],[1,0.5]];portConstraint=eastwest;whiteSpace=wrap;html=1;" vertex="1" parent="AAWV9IvX8UEuNwH8iyRC-13">
          <mxGeometry y="34" width="160" height="26" as="geometry" />
        </mxCell>
        <mxCell id="AAWV9IvX8UEuNwH8iyRC-17" value="Onibus" style="swimlane;fontStyle=1;align=center;verticalAlign=top;childLayout=stackLayout;horizontal=1;startSize=26;horizontalStack=0;resizeParent=1;resizeParentMax=0;resizeLast=0;collapsible=1;marginBottom=0;whiteSpace=wrap;html=1;" vertex="1" parent="1">
          <mxGeometry x="440" y="555" width="160" height="60" as="geometry" />
        </mxCell>
        <mxCell id="AAWV9IvX8UEuNwH8iyRC-19" value="" style="line;strokeWidth=1;fillColor=none;align=left;verticalAlign=middle;spacingTop=-1;spacingLeft=3;spacingRight=3;rotatable=0;labelPosition=right;points=[];portConstraint=eastwest;strokeColor=inherit;" vertex="1" parent="AAWV9IvX8UEuNwH8iyRC-17">
          <mxGeometry y="26" width="160" height="8" as="geometry" />
        </mxCell>
        <mxCell id="AAWV9IvX8UEuNwH8iyRC-20" value="+ Onibus(...)" style="text;strokeColor=none;fillColor=none;align=left;verticalAlign=top;spacingLeft=4;spacingRight=4;overflow=hidden;rotatable=0;points=[[0,0.5],[1,0.5]];portConstraint=eastwest;whiteSpace=wrap;html=1;" vertex="1" parent="AAWV9IvX8UEuNwH8iyRC-17">
          <mxGeometry y="34" width="160" height="26" as="geometry" />
        </mxCell>
        <mxCell id="AAWV9IvX8UEuNwH8iyRC-29" value="baseVeiculos&lt;br&gt;&amp;lt;&amp;lt;Abstract&amp;gt;&amp;gt;" style="swimlane;fontStyle=1;align=center;verticalAlign=top;childLayout=stackLayout;horizontal=1;startSize=40;horizontalStack=0;resizeParent=1;resizeParentMax=0;resizeLast=0;collapsible=1;marginBottom=0;whiteSpace=wrap;html=1;" vertex="1" parent="1">
          <mxGeometry x="20" y="40" width="160" height="336" as="geometry" />
        </mxCell>
        <mxCell id="AAWV9IvX8UEuNwH8iyRC-30" value="# codigo: int&lt;br style=&quot;border-color: var(--border-color);&quot;&gt;# nome: string&lt;br style=&quot;border-color: var(--border-color);&quot;&gt;# modelo: string&lt;br&gt;# cor: string&lt;br style=&quot;border-color: var(--border-color);&quot;&gt;# anoModelo: data&lt;br style=&quot;border-color: var(--border-color);&quot;&gt;# anoFabricacao: data&lt;br style=&quot;border-color: var(--border-color);&quot;&gt;# fabricante: string&lt;br style=&quot;border-color: var(--border-color);&quot;&gt;# tipoCombustivel: string&lt;br style=&quot;border-color: var(--border-color);&quot;&gt;# qtdeOcupantes: int&lt;br style=&quot;border-color: var(--border-color);&quot;&gt;# qtdeMotores: int&lt;br&gt;# rodas: int&lt;br&gt;# potencia: double&lt;br&gt;# estadoUF: string&lt;br&gt;# cidadeUF: string" style="text;strokeColor=none;fillColor=none;align=left;verticalAlign=top;spacingLeft=4;spacingRight=4;overflow=hidden;rotatable=0;points=[[0,0.5],[1,0.5]];portConstraint=eastwest;whiteSpace=wrap;html=1;" vertex="1" parent="AAWV9IvX8UEuNwH8iyRC-29">
          <mxGeometry y="40" width="160" height="210" as="geometry" />
        </mxCell>
        <mxCell id="AAWV9IvX8UEuNwH8iyRC-31" value="" style="line;strokeWidth=1;fillColor=none;align=left;verticalAlign=middle;spacingTop=-1;spacingLeft=3;spacingRight=3;rotatable=0;labelPosition=right;points=[];portConstraint=eastwest;strokeColor=inherit;" vertex="1" parent="AAWV9IvX8UEuNwH8iyRC-29">
          <mxGeometry y="250" width="160" height="8" as="geometry" />
        </mxCell>
        <mxCell id="AAWV9IvX8UEuNwH8iyRC-32" value="+ baseVeiculos(int, string, string, string, data, data, string,, string, int, int, int, int, int, double, string, string)" style="text;strokeColor=none;fillColor=none;align=left;verticalAlign=top;spacingLeft=4;spacingRight=4;overflow=hidden;rotatable=0;points=[[0,0.5],[1,0.5]];portConstraint=eastwest;whiteSpace=wrap;html=1;" vertex="1" parent="AAWV9IvX8UEuNwH8iyRC-29">
          <mxGeometry y="258" width="160" height="78" as="geometry" />
        </mxCell>
        <mxCell id="AAWV9IvX8UEuNwH8iyRC-65" style="edgeStyle=orthogonalEdgeStyle;rounded=0;orthogonalLoop=1;jettySize=auto;html=1;" edge="1" parent="1" source="AAWV9IvX8UEuNwH8iyRC-38" target="AAWV9IvX8UEuNwH8iyRC-61">
          <mxGeometry relative="1" as="geometry" />
        </mxCell>
        <mxCell id="AAWV9IvX8UEuNwH8iyRC-38" value="baseTerrestre&lt;br&gt;&amp;lt;&amp;lt;Abstract&amp;gt;&amp;gt;" style="swimlane;fontStyle=1;align=center;verticalAlign=top;childLayout=stackLayout;horizontal=1;startSize=40;horizontalStack=0;resizeParent=1;resizeParentMax=0;resizeLast=0;collapsible=1;marginBottom=0;whiteSpace=wrap;html=1;" vertex="1" parent="1">
          <mxGeometry x="230" y="200" width="160" height="196" as="geometry" />
        </mxCell>
        <mxCell id="AAWV9IvX8UEuNwH8iyRC-39" value="# nomeProprietario: string&lt;br&gt;# portas: int&lt;br&gt;# assentos: int&lt;br&gt;# chassi: string&lt;br&gt;# placa: string&lt;br&gt;# codigoRenavam: int&lt;br&gt;# eixos: int" style="text;strokeColor=none;fillColor=none;align=left;verticalAlign=top;spacingLeft=4;spacingRight=4;overflow=hidden;rotatable=0;points=[[0,0.5],[1,0.5]];portConstraint=eastwest;whiteSpace=wrap;html=1;" vertex="1" parent="AAWV9IvX8UEuNwH8iyRC-38">
          <mxGeometry y="40" width="160" height="110" as="geometry" />
        </mxCell>
        <mxCell id="AAWV9IvX8UEuNwH8iyRC-40" value="" style="line;strokeWidth=1;fillColor=none;align=left;verticalAlign=middle;spacingTop=-1;spacingLeft=3;spacingRight=3;rotatable=0;labelPosition=right;points=[];portConstraint=eastwest;strokeColor=inherit;" vertex="1" parent="AAWV9IvX8UEuNwH8iyRC-38">
          <mxGeometry y="150" width="160" height="8" as="geometry" />
        </mxCell>
        <mxCell id="AAWV9IvX8UEuNwH8iyRC-41" value="+ baseTerrestres(..., string, int, int, string, string, int, int)" style="text;strokeColor=none;fillColor=none;align=left;verticalAlign=top;spacingLeft=4;spacingRight=4;overflow=hidden;rotatable=0;points=[[0,0.5],[1,0.5]];portConstraint=eastwest;whiteSpace=wrap;html=1;" vertex="1" parent="AAWV9IvX8UEuNwH8iyRC-38">
          <mxGeometry y="158" width="160" height="38" as="geometry" />
        </mxCell>
        <mxCell id="AAWV9IvX8UEuNwH8iyRC-55" style="edgeStyle=orthogonalEdgeStyle;rounded=0;orthogonalLoop=1;jettySize=auto;html=1;entryX=0.006;entryY=0.588;entryDx=0;entryDy=0;entryPerimeter=0;" edge="1" parent="1" source="AAWV9IvX8UEuNwH8iyRC-30" target="AAWV9IvX8UEuNwH8iyRC-39">
          <mxGeometry relative="1" as="geometry" />
        </mxCell>
        <mxCell id="AAWV9IvX8UEuNwH8iyRC-56" style="edgeStyle=orthogonalEdgeStyle;rounded=0;orthogonalLoop=1;jettySize=auto;html=1;" edge="1" parent="1" source="AAWV9IvX8UEuNwH8iyRC-30">
          <mxGeometry relative="1" as="geometry">
            <mxPoint x="230" y="79" as="targetPoint" />
          </mxGeometry>
        </mxCell>
        <mxCell id="AAWV9IvX8UEuNwH8iyRC-61" value="baseTransporte&lt;br&gt;&amp;lt;&amp;lt;Abstract&amp;gt;&amp;gt;" style="swimlane;fontStyle=1;align=center;verticalAlign=top;childLayout=stackLayout;horizontal=1;startSize=38;horizontalStack=0;resizeParent=1;resizeParentMax=0;resizeLast=0;collapsible=1;marginBottom=0;whiteSpace=wrap;html=1;" vertex="1" parent="1">
          <mxGeometry x="230" y="440" width="160" height="130" as="geometry" />
        </mxCell>
        <mxCell id="AAWV9IvX8UEuNwH8iyRC-62" value="# pesoLiquido: int&lt;br&gt;# pesoTotal: int" style="text;strokeColor=none;fillColor=none;align=left;verticalAlign=top;spacingLeft=4;spacingRight=4;overflow=hidden;rotatable=0;points=[[0,0.5],[1,0.5]];portConstraint=eastwest;whiteSpace=wrap;html=1;" vertex="1" parent="AAWV9IvX8UEuNwH8iyRC-61">
          <mxGeometry y="38" width="160" height="42" as="geometry" />
        </mxCell>
        <mxCell id="AAWV9IvX8UEuNwH8iyRC-63" value="" style="line;strokeWidth=1;fillColor=none;align=left;verticalAlign=middle;spacingTop=-1;spacingLeft=3;spacingRight=3;rotatable=0;labelPosition=right;points=[];portConstraint=eastwest;strokeColor=inherit;" vertex="1" parent="AAWV9IvX8UEuNwH8iyRC-61">
          <mxGeometry y="80" width="160" height="8" as="geometry" />
        </mxCell>
        <mxCell id="AAWV9IvX8UEuNwH8iyRC-64" value="+ baseTransporte(..., int, int)" style="text;strokeColor=none;fillColor=none;align=left;verticalAlign=top;spacingLeft=4;spacingRight=4;overflow=hidden;rotatable=0;points=[[0,0.5],[1,0.5]];portConstraint=eastwest;whiteSpace=wrap;html=1;" vertex="1" parent="AAWV9IvX8UEuNwH8iyRC-61">
          <mxGeometry y="88" width="160" height="42" as="geometry" />
        </mxCell>
        <mxCell id="AAWV9IvX8UEuNwH8iyRC-78" style="edgeStyle=orthogonalEdgeStyle;rounded=0;orthogonalLoop=1;jettySize=auto;html=1;entryX=0.006;entryY=0.15;entryDx=0;entryDy=0;entryPerimeter=0;" edge="1" parent="1" source="AAWV9IvX8UEuNwH8iyRC-62" target="AAWV9IvX8UEuNwH8iyRC-5">
          <mxGeometry relative="1" as="geometry" />
        </mxCell>
        <mxCell id="AAWV9IvX8UEuNwH8iyRC-79" style="edgeStyle=orthogonalEdgeStyle;rounded=0;orthogonalLoop=1;jettySize=auto;html=1;entryX=0;entryY=0.25;entryDx=0;entryDy=0;" edge="1" parent="1" source="AAWV9IvX8UEuNwH8iyRC-62" target="AAWV9IvX8UEuNwH8iyRC-17">
          <mxGeometry relative="1" as="geometry" />
        </mxCell>
        <mxCell id="AAWV9IvX8UEuNwH8iyRC-81" style="edgeStyle=orthogonalEdgeStyle;rounded=0;orthogonalLoop=1;jettySize=auto;html=1;entryX=0;entryY=0.25;entryDx=0;entryDy=0;" edge="1" parent="1" source="AAWV9IvX8UEuNwH8iyRC-39" target="AAWV9IvX8UEuNwH8iyRC-9">
          <mxGeometry relative="1" as="geometry" />
        </mxCell>
        <mxCell id="AAWV9IvX8UEuNwH8iyRC-82" style="edgeStyle=orthogonalEdgeStyle;rounded=0;orthogonalLoop=1;jettySize=auto;html=1;entryX=0;entryY=0.25;entryDx=0;entryDy=0;" edge="1" parent="1" source="AAWV9IvX8UEuNwH8iyRC-39" target="AAWV9IvX8UEuNwH8iyRC-13">
          <mxGeometry relative="1" as="geometry" />
        </mxCell>
      </root>
    </mxGraphModel>
  </diagram>
</mxfile>
